PathFileType	4	(X/Y/Z)	D:\Research_projects\MuscleProsody\BulkSports2Dtrack\RetrackedSports2D\p1_sample60_cam2\p1_sample60_cam2_Sports2D\p1_sample60_cam2_Sports2D_px_person00.trc
DataRate	CameraRate	NumFrames	NumMarkers	Units	OrigDataRate	OrigDataStartFrame	OrigNumFrames
60	60	13	22	m	60	292	780
Frame#	Time	Hip			RHip			RKnee			RAnkle			RBigToe			RSmallToe			RHeel			LHip			LKnee			LAnkle			LBigToe			LSmallToe			LHeel			Neck			Head			Nose			RShoulder			RElbow			RWrist			LShoulder			LElbow			LWrist		
		X1	Y1	Z1	X2	Y2	Z2	X3	Y3	Z3	X4	Y4	Z4	X5	Y5	Z5	X6	Y6	Z6	X7	Y7	Z7	X8	Y8	Z8	X9	Y9	Z9	X10	Y10	Z10	X11	Y11	Z11	X12	Y12	Z12	X13	Y13	Z13	X14	Y14	Z14	X15	Y15	Z15	X16	Y16	Z16	X17	Y17	Z17	X18	Y18	Z18	X19	Y19	Z19	X20	Y20	Z20	X21	Y21	Z21	X22	Y22	Z22
292	4.866666666666666	247.3941968326018	510.1833199574443	0.0	219.02664983088943	511.70031143344335	0.0	217.43090668883727	633.4026017476161	0.0	219.19427415423183	732.3301403880606	0.0	221.38970121098117	767.7867612297601	0.0	205.42011811983548	762.8081465195537	0.0	224.07139461754647	740.8421022016224	0.0	274.4849571894904	512.3347391675682	0.0	269.5333198907172	635.1430668127309	0.0	269.5284780832231	734.642411966312	0.0	264.8434559059717	768.9079843394978	0.0	282.1143400045115	764.7871289418802	0.0	266.2356431484658	740.666463905136	0.0	253.95479646177938	332.4981867448746	0.0	251.04598352386213	243.99699791608924	0.0	236.80673147537945	300.0075237336113	0.0	201.56917261821138	352.71954562462406	0.0	142.75674643899217	389.35013070864846	0.0	65.41836006416997	394.74191392123635	0.0	307.1381849946897	357.50948161525963	0.0	370.9968607635625	396.9509417594304	0.0	443.9971020815156	419.92124666783064	0.0
293	4.883333333333333	247.46133817071495	510.0276310550898	0.0	219.12146712622	511.2566666737479	0.0	217.40920010736443	633.6634906147348	0.0	219.11807828511076	732.6652812376325	0.0	221.26911571888527	767.6153954426338	0.0	205.51480207424925	762.6345174346834	0.0	224.09284550714392	740.7106552012064	0.0	274.412172785447	511.84608316677486	0.0	269.6346905416006	635.2851295100124	0.0	269.65602916410967	734.9499932075257	0.0	264.96943424381476	769.0820473297259	0.0	282.20908525039334	764.7854015255776	0.0	266.22522817617465	740.6103550241918	0.0	254.06689578808647	332.57435758129674	0.0	251.44885163362585	244.07336145673202	0.0	237.28776805465841	300.027647289449	0.0	201.04522919458537	352.14053370614306	0.0	138.27440407488706	384.0141333949116	0.0	59.301675733544	381.0677371450918	0.0	307.7065461393775	357.2295275025255	0.0	374.6798491071083	392.43810893806955	0.0	449.12613471824403	407.36292619362047	0.0
294	4.9	247.50443305435198	509.89857497074746	0.0	219.20477182734467	510.84561240911876	0.0	217.36528986044235	633.8262712301221	0.0	219.03888746921288	733.0115018675407	0.0	221.13769601764633	767.4626069389419	0.0	205.60556570623794	762.4759609812942	0.0	224.11634320816017	740.5592476823405	0.0	274.30779216515157	511.39979657480444	0.0	269.6868734257402	635.3421397551333	0.0	269.77918165505645	735.221463855997	0.0	265.0652462328979	769.2876987629477	0.0	282.27650041284727	764.7867492725261	0.0	266.21732878191096	740.4732873526901	0.0	254.21745305539747	332.6502421269821	0.0	251.9349177784988	244.16099397132137	0.0	237.83650761206232	300.0299742445793	0.0	200.53307313974824	351.6237495071994	0.0	134.20135740745903	378.88118622076536	0.0	54.5443956825862	367.85275326324415	0.0	308.3045215833922	356.9928269008539	0.0	377.88040772515274	388.18170380374943	0.0	452.8335546026782	394.9294230536727	0.0
295	4.916666666666667	247.51503254597327	509.8059545245296	0.0	219.2649194478384	510.4808296284048	0.0	217.29668504613915	633.9213384855558	0.0	218.96484914835264	733.3829312954862	0.0	220.9995250850977	767.3432855578735	0.0	205.68728099843213	762.3465250783403	0.0	224.1547926065945	740.4204963911967	0.0	274.1705810701903	511.0124440978436	0.0	269.68381782340316	635.3501557641878	0.0	269.8907614510923	735.4770306221859	0.0	265.1405545890016	769.5057140276105	0.0	282.321044878385	764.785359769965	0.0	266.20516034614434	740.2893222813892	0.0	254.40470772844745	332.7323723526163	0.0	252.48791340033046	244.26063515379474	0.0	238.4458881100018	300.009407135545	0.0	200.07988314512605	351.1612310767978	0.0	130.6830244273258	374.0334422643466	0.0	51.42221032927307	355.34393832601927	0.0	308.8930808040601	356.78281335957723	0.0	380.49709585116443	384.2251896330496	0.0	454.96349124764276	382.7684027846354	0.0
296	4.933333333333334	247.48826148175036	509.7559183501618	0.0	219.2942869395934	510.16683000042633	0.0	217.20315145632395	633.970984307107	0.0	218.9062027851253	733.7880589781449	0.0	220.85807031411204	767.273206656094	0.0	205.74944954905249	762.2578931386781	0.0	224.21943996692093	740.3311779661628	0.0	274.00452726051265	510.6892017276739	0.0	269.62198474891073	635.3352996548962	0.0	269.98357665415347	735.731565866186	0.0	265.2030614111791	769.7097690759072	0.0	282.3446395423091	764.7783951714921	0.0	266.183140522877	740.0972522166824	0.0	254.62146184722846	332.81994581881787	0.0	253.08732054884806	244.3768153645097	0.0	239.10568328416832	299.9664379130291	0.0	199.73734306375187	350.7441283103016	0.0	127.85154316266018	369.5717738159383	0.0	50.15698858998351	343.8151551863002	0.0	309.4239392556796	356.58103113762377	0.0	382.42819188454956	380.633402306922	0.0	455.36529878389933	371.0848661548119	0.0
297	4.95	247.4233847314523	509.7477836332234	0.0	219.28992482092175	509.8986820005878	0.0	217.08969286388444	633.9901065634868	0.0	218.87297701381888	734.227792144208	0.0	220.71840593167008	767.2654621404881	0.0	205.77982308569355	762.2178258418179	0.0	224.317352101873	740.3178508208189	0.0	273.8193425601262	510.4252244533077	0.0	269.5042512742105	635.3135015842611	0.0	270.05173479521494	735.9935070990001	0.0	265.2579296471818	769.8711322450735	0.0	282.3473517403734	764.7643504307314	0.0	266.145295031859	739.9315394137078	0.0	254.85633483896987	332.9041390799045	0.0	253.7091464469811	244.51412583898622	0.0	239.80018029461866	299.90402300103506	0.0	199.55493014174158	350.3674594737811	0.0	125.81344109587407	365.6122751571772	0.0	50.891937713821726	333.552793679362	0.0	309.84434314292156	356.3737827873556	0.0	383.57546196119927	377.49302922582325	0.0	453.91087429580625	360.1377193259676	0.0
298	4.966666666666667	247.32408381159252	509.77283263856395	0.0	219.25247085738582	509.667090130494	0.0	216.9669255503739	633.9929131058859	0.0	218.871821688461	734.6971593677812	0.0	220.58877236857003	767.3249601132864	0.0	205.77209168075507	762.2280433225509	0.0	224.45151344960698	740.3860825224568	0.0	273.62985153740965	510.21159396344297	0.0	269.3414964692294	635.2973983305586	0.0	270.0900098324466	736.2677711792131	0.0	265.30774792625743	769.9671951354293	0.0	282.3291932417326	764.7400786580774	0.0	266.08228345136916	739.8131817536814	0.0	255.09572571178643	332.96877976811135	0.0	254.32793193711333	244.67525224571202	0.0	240.50808007656906	299.824530082409	0.0	199.57277612773646	350.03283156346845	0.0	124.64469380622961	362.27817447512035	0.0	53.68476719139837	324.8432060213047	0.0	310.1035816099928	356.15661944802633	0.0	383.84705358469176	374.90712644375094	0.0	450.5150483501126	350.2279990636624	0.0
299	4.983333333333333	247.1979557019113	509.81674126921723	0.0	219.1849565489791	509.4648894184399	0.0	216.84716083880767	633.9957441458179	0.0	218.90429140318471	735.1858475952573	0.0	220.4794026368258	767.445760137029	0.0	205.73062465940302	762.2834811882117	0.0	224.6211053199935	740.5213776401021	0.0	273.4537607571122	510.04184028623735	0.0	269.1492112145201	635.2996885129552	0.0	270.09290632908295	736.555429617205	0.0	265.3525340628031	769.9894520567001	0.0	282.2910616491327	764.7015658296322	0.0	265.9840441706696	739.745002730509	0.0	255.32664873300467	332.9925870204002	0.0	254.91906960031523	244.86128719091	0.0	241.2068491730189	299.7279853071642	0.0	199.81503106072205	349.7495271626864	0.0	124.3895428943796	359.69012335021876	0.0	58.51588372162535	317.96013494008565	0.0	310.16048346348646	355.93506031121484	0.0	383.1653707218875	372.98407074604916	0.0	445.15053257602244	341.67659487157744	0.0
300	5.0	247.05456685579097	509.8658717929743	0.0	219.09188625456864	509.2903182080519	0.0	216.74088039008106	634.0154946215066	0.0	218.9662965964399	735.6780610876906	0.0	220.40030389041502	767.6138942149801	0.0	205.6685828243711	762.3737847024269	0.0	224.8206393615619	740.6963546144428	0.0	273.307614160075	509.9156718690121	0.0	268.9434235406484	635.3323650991294	0.0	270.0556388163245	736.8511643267097	0.0	265.39228159274114	769.9464249270623	0.0	282.2355500587462	764.6470334212876	0.0	265.8455920966641	739.7136216198007	0.0	255.53939346431736	332.95488819889766	0.0	255.46121753705194	245.0717107957765	0.0	241.87789822271736	299.61195128002106	0.0	200.28595425954748	349.5326034805483	0.0	125.05669527277988	357.9547569522165	0.0	65.29557459513305	313.1430213454391	0.0	309.99112973683606	355.7218495196662	0.0	381.48252551459996	371.8227322110968	0.0	437.86024132682564	334.7890923869941	0.0
301	5.016666666666667	246.9022401203232	509.9126747408508	0.0	218.97806813678838	509.1451681047161	0.0	216.65652411276005	634.0653812324562	0.0	219.0488514974376	736.1545300138231	0.0	220.35956251463992	767.813140034854	0.0	205.60203079243874	762.4858280064402	0.0	225.040274374743	740.8788570059817	0.0	273.20315020250666	509.83803616002257	0.0	268.73875478923395	635.4049702095805	0.0	269.976352728579	737.1448488560587	0.0	265.4290606188508	769.8598923957185	0.0	282.16722178773193	764.5784378263588	0.0	265.66963924919173	739.6976280429498	0.0	255.72825959444307	332.8419600756575	0.0	255.93841709074664	245.3037798597867	0.0	242.5075087122212	299.47357715472396	0.0	200.97035095350876	349.3977762911942	0.0	126.6191037529354	357.15608937963657	0.0	73.86023585636866	310.5803482934467	0.0	309.59511563430937	355.532091286952	0.0	378.79326757781377	371.5028573245963	0.0	428.7713056525168	329.82790115867044	0.0
302	5.033333333333333	246.7465939174122	509.9554734385405	0.0	218.84760295291127	509.0326618967605	0.0	216.60015718702465	634.1495215094884	0.0	219.1404855836899	736.5959751528284	0.0	220.36195076383905	768.0299530094561	0.0	205.5443949749337	762.6056786230617	0.0	225.26705418786554	741.0396784322692	0.0	273.1460238172801	509.81571194015993	0.0	268.5472301072322	635.5221840882762	0.0	269.8571601956622	737.4273466031325	0.0	265.46552927712435	769.7566174657263	0.0	282.09132163836733	764.5014677423184	0.0	265.4652833682801	739.6768833214387	0.0	255.88967579473842	332.64961296788715	0.0	256.34048027363065	245.55284317417045	0.0	243.08458076490493	299.31159750067906	0.0	201.83473375336965	349.35610116755277	0.0	129.01913675840345	357.35109358099635	0.0	83.96488103303388	310.40280330058715	0.0	308.9975950886382	355.37867504797816	0.0	375.1386042447207	372.0816862264036	0.0	418.1029264208846	327.00109332562596	0.0
303	5.05	246.5926745914404	509.993592909369	0.0	218.70371577579635	508.9578695549182	0.0	216.57391548758505	634.2597988571398	0.0	219.2299963884596	736.9846732904289	0.0	220.4079083257214	768.2558676517373	0.0	205.50370656512334	762.7203825107599	0.0	225.48506891623083	741.1572881396886	0.0	273.1369251940265	509.85426961546864	0.0	268.37805427274884	635.6803593895984	0.0	269.7032737333809	737.6924143956758	0.0	265.5026615483525	769.6601704003776	0.0	282.0108885677878	764.4246810472551	0.0	265.2457193570838	739.6366271776184	0.0	256.02010060907475	332.3820711284952	0.0	256.6620887562126	245.8132773325732	0.0	243.59890193534795	299.1255055344924	0.0	202.82817189897239	349.4106869568459	0.0	132.17311092471965	358.56733616461565	0.0	95.29085893906887	312.67245329330575	0.0	308.2453025364765	355.2695732354674	0.0	370.6045452651156	373.5881778177081	0.0	406.1555293136955	326.45729470674286	0.0
304	5.066666666666666	246.44742914130202	510.023001283794	0.0	218.5498496023467	508.9259201752748	0.0	216.5759768023065	634.3759476443931	0.0	219.3079713306896	737.304355985736	0.0	220.49427200937694	768.4870425923777	0.0	205.4835169354017	762.8211032894064	0.0	225.67549738797425	741.2193201568576	0.0	273.1748160449489	509.9552340719586	0.0	268.23836500149577	635.8637699466711	0.0	269.5215776234644	737.9322105057074	0.0	265.5386695029406	769.5865005434711	0.0	281.9235482891163	764.3577446465347	0.0	265.02694124940297	739.5664520107586	0.0	256.1164322881237	332.0506026393785	0.0	256.90133947524	246.0784442481768	0.0	244.0406910828529	298.91330257696177	0.0	203.88612152287	349.55605313489207	0.0	135.9729757172096	360.8007310528095	0.0	107.46760275056185	317.3637378547697	0.0	307.3988842006252	355.2069054950933	0.0	365.3230406180026	376.0126172586834	0.0	393.2902008766692	328.276416282573	0.0
